<svg xmlns="http://www.w3.org/2000/svg" width="847" height="623.673" data-name="Layer 1">
  <path fill="#fff" d="M610.122 215.548H318.283a17.52 17.52 0 0 1-17.5-17.5V25.894a13.103 13.103 0 0 1 13.088-13.089h300.453a13.312 13.312 0 0 1 13.298 13.298v171.945a17.52 17.52 0 0 1-17.5 17.5Z"/>
  <path fill="#3f3d56" d="M610.122 215.548H318.283a17.52 17.52 0 0 1-17.5-17.5V25.894a13.103 13.103 0 0 1 13.088-13.089h300.453a13.312 13.312 0 0 1 13.298 13.298v171.945a17.52 17.52 0 0 1-17.5 17.5ZM313.872 14.805a11.1 11.1 0 0 0-11.089 11.089v172.154a15.518 15.518 0 0 0 15.5 15.5h291.839a15.518 15.518 0 0 0 15.5-15.5V26.103a11.31 11.31 0 0 0-11.298-11.298Z"/>
  <path fill="#f2f2f2" d="M334.283 198.048h259.839a16 16 0 0 0 16-16V56.5a16 16 0 0 0-16-16H334.283a16 16 0 0 0-16 16v125.548a16 16 0 0 0 16 16Z"/>
  <path fill="#f500c6" d="M628.06 24.95h-328v-8.4A16.666 16.666 0 0 1 316.8 0h294.517a16.666 16.666 0 0 1 16.742 16.55Z"/>
  <circle cx="331.647" cy="12.5" r="4.283" fill="#fff"/>
  <circle cx="347.906" cy="12.5" r="4.283" fill="#fff"/>
  <circle cx="364.165" cy="12.5" r="4.283" fill="#fff"/>
  <path fill="#f500c6" d="M380.533 152.274a33 33 0 1 1 33-33 33.037 33.037 0 0 1-33 33Z"/>
  <path fill="#3f3d56" d="M572.872 146.274H445.154a8.19 8.19 0 0 1-8.264-7.452 8.009 8.009 0 0 1 7.982-8.548h127.683a8.212 8.212 0 0 1 8.3 7.486 8.009 8.009 0 0 1-7.983 8.514ZM505.872 112.274h-60.718a8.19 8.19 0 0 1-8.264-7.452 8.009 8.009 0 0 1 7.982-8.548h60.683a8.212 8.212 0 0 1 8.3 7.486 8.009 8.009 0 0 1-7.983 8.514Z"/>
  <path fill="#ffb8b8" d="M760.096 452.401a10.056 10.056 0 0 0-7.83-13.283l-6.03-35.222-13.556 12.692 7.804 31.502a10.11 10.11 0 0 0 19.612 4.311Z"/>
  <path fill="#ccc" d="m751.09 435.55-13.309 3.492a2.51 2.51 0 0 1-3.04-1.738l-23.915-84.73-7.225-21.616a13.019 13.019 0 0 1 13.907-17.052 13.01 13.01 0 0 1 10.925 9.23l19.11 64.593 5.394 45.106a2.51 2.51 0 0 1-1.315 2.507 2.462 2.462 0 0 1-.533.207Z"/>
  <circle cx="702.453" cy="275.052" r="24.561" fill="#ffb8b8"/>
  <path fill="#ffb8b8" d="m630.137 611.049-11.751-3.496 7.894-46.988 17.343 5.16-13.486 45.324z"/>
  <path fill="#2f2e41" d="m629.745 623.331-37.89-11.273.143-.48a15.386 15.386 0 0 1 19.135-10.36l.001.001 23.141 6.886Z"/>
  <path fill="#ffb8b8" d="M758.875 610.447h-12.26l-5.832-47.288 12.094.001 5.998 47.287z"/>
  <path fill="#2f2e41" d="m762.002 622.331-39.53-.001v-.5a15.386 15.386 0 0 1 15.386-15.386h24.144ZM634.657 597.147h-12.31a4.5 4.5 0 0 1-4.425-5.314c-7.85-3.492 34.416-206.185 44.402-202.256l.329-.473 50.287 4.103c22.524 45.08 36.782 119.673 50.123 197.544a4.5 4.5 0 0 1-4.144 5.602l-13.83.67a4.479 4.479 0 0 1-4.397-2.822l-52.989-132.468a1.433 1.433 0 0 0-1.427-.943 1.47 1.47 0 0 0-1.382 1.007l-45.986 132.327a4.504 4.504 0 0 1-4.25 3.023Z"/>
  <path fill="#ccc" d="m713.993 397.174-.384-.028-53.54-4.041 9.39-59.73a31.273 31.273 0 0 1 26.722-26.215q.617-.086 1.243-.169a30.9 30.9 0 0 1 28.086 11.24 31.29 31.29 0 0 1 5.354 30.17Z"/>
  <path fill="#2f2e41" d="M750.146 303.147c-16.888 7.725-39.803 6.343-66 0 3.625-9.93 6.45-19.52 3.246-26.56a21.443 21.443 0 0 1-.703-17.164 33.01 33.01 0 0 1 30.457-20.276 33 33 0 0 1 33 33Z"/>
  <path fill="#2f2e41" d="M693.146 241.392h21v25.825h-44v-2.825a23 23 0 0 1 23-23Z"/>
  <path fill="#ffb8b8" d="M658.91 457.957a10.056 10.056 0 0 0-.692-15.404l11.18-33.941-17.923 4.86-7.869 31.486a10.11 10.11 0 0 0 15.305 12.999Z"/>
  <path fill="#ccc" d="m658.851 438.849-13.392-3.151a2.51 2.51 0 0 1-1.872-2.96l18.582-86.058 3.746-22.48a13.019 13.019 0 0 1 20.277-8.547 13.01 13.01 0 0 1 5.325 13.273l-13.389 66.017-16.372 42.374a2.51 2.51 0 0 1-2.336 1.598 2.462 2.462 0 0 1-.569-.066ZM846 623.673H465a1 1 0 0 1 0-2h381a1 1 0 0 1 0 2Z"/>
  <path fill="#ffb8b8" d="M135.034 384.944a10.525 10.525 0 0 0-1.568.536l-41.674-26.884.575-12.034-18.049-3.241-3.088 21.205a8 8 0 0 0 4.594 8.43l51.327 23.43a10.497 10.497 0 1 0 7.883-11.442Z"/>
  <path fill="#3f3d56" d="m90.091 357.855-22.35-4.126a4.5 4.5 0 0 1-3.44-5.881l7.334-21.439a12.497 12.497 0 0 1 24.566 4.61l-.796 22.571a4.5 4.5 0 0 1-5.314 4.265Z"/>
  <path fill="#fff" d="M525.33 295.693h-381a18.89 18.89 0 0 0-9.36 2.47 18.527 18.527 0 0 0-1.97 1.29 18.964 18.964 0 0 0-7.67 15.24v198a19.017 19.017 0 0 0 19 19h381a19.017 19.017 0 0 0 19-19v-198a19.017 19.017 0 0 0-19-19Z"/>
  <path fill="#3f3d56" d="M525.33 295.693h-381a18.89 18.89 0 0 0-9.36 2.47 18.527 18.527 0 0 0-1.97 1.29 18.964 18.964 0 0 0-7.67 15.24v198a19.017 19.017 0 0 0 19 19h381a19.017 19.017 0 0 0 19-19v-198a19.017 19.017 0 0 0-19-19Zm17 217a17.024 17.024 0 0 1-17 17h-381a17.024 17.024 0 0 1-17-17v-198a17.095 17.095 0 0 1 11.78-16.18c.14-.04.27-.09.41-.13a16.996 16.996 0 0 1 4.81-.69h381a17.024 17.024 0 0 1 17 17Z"/>
  <path fill="#3f3d56" d="M334.414 413.609a8.987 8.987 0 0 1-4.339-1.119L131.032 302.938a1 1 0 0 1 .965-1.752L331.04 410.738a6.982 6.982 0 0 0 6.641.059l202.32-106.73a1 1 0 1 1 .933 1.77l-202.32 106.729a8.992 8.992 0 0 1-4.2 1.043ZM188.897 481.693h-28a8 8 0 0 1 0-16h28a8 8 0 0 1 0 16ZM221.897 508.693h-61a8 8 0 0 1 0-16h61a8 8 0 0 1 0 16Z"/>
  <circle cx="334.334" cy="413.693" r="32" fill="#f500c6"/>
  <path fill="#f2f2f2" d="M189.277 314.519 330.3 373.357a2 2 0 0 0 1.52.008l145.392-58.838a2 2 0 0 0-.75-3.854H190.047a2 2 0 0 0-.77 3.846Z"/>
  <path fill="#ffb8b8" d="M167.809 299.706a10.527 10.527 0 0 0-.24 1.64l-42.957 24.782-10.442-6.011-11.13 14.572 17.45 12.438a8 8 0 0 0 9.598-.234l44.296-34.946a10.497 10.497 0 1 0-6.575-12.241Z"/>
  <path fill="#3f3d56" d="m123.176 327.302-13.884 17.994a4.5 4.5 0 0 1-6.804.372l-15.717-16.32a12.497 12.497 0 0 1 15.326-19.745l19.713 11.023a4.5 4.5 0 0 1 1.366 6.676Z"/>
  <circle cx="66.321" cy="259.777" r="24.561" fill="#ffb8b8"/>
  <path fill="#ffb8b8" d="M89.505 611.447h12.26l5.832-47.288-18.094.001.002 47.287z"/>
  <path fill="#2f2e41" d="m86.378 607.445 24.144-.001a15.386 15.386 0 0 1 15.387 15.386v.5l-39.53.001Z"/>
  <path fill="#ffb8b8" d="M47.505 611.447h12.26l5.832-47.288-18.094.001.002 47.287z"/>
  <path fill="#2f2e41" d="m44.378 607.445 24.144-.001A15.386 15.386 0 0 1 83.91 622.83v.5l-39.53.001ZM85.827 593.5 73.32 496.748a.492.492 0 0 0-.506-.467.475.475 0 0 0-.492.481l-3.594 95.35a4.486 4.486 0 0 1-4.497 4.331h-14.85a4.474 4.474 0 0 1-4.498-4.392l-3.855-158.865 66.456.664 1.659 159.376a4.503 4.503 0 0 1-1.579 3.32 4.438 4.438 0 0 1-3.459 1.04l-14.4.04a4.504 4.504 0 0 1-3.88-4.124Z"/>
  <path fill="#3f3d56" d="M40.044 437.53a4.497 4.497 0 0 1-2.84-3.53l-.663-87.31c-2.937-19.44-6.41-38.488 10.586-48.338l1.497-4.493a2.51 2.51 0 0 1 2.3-1.709l32.243-.92a2.479 2.479 0 0 1 2.37 1.513l2.398 5.596.851.486a47.412 47.412 0 0 1 23.599 46.81l-1.844 15.564-1.31 72.738a4.539 4.539 0 0 1-2.361 3.887c-9.367 5.129-19.744 6.883-29.563 6.883-16.498 0-31.414-4.955-37.263-7.177Z"/>
  <path fill="#2f2e41" d="M65.521 285.248a26.205 26.205 0 1 1 4.91-51.826c5.401-3.28 11.681-5.486 17.975-4.925s12.518 4.298 14.872 10.162-.175 13.595-6.027 15.978c-3.752 1.528-7.989.787-11.993.17s-8.371-1.018-11.856 1.048-5.051 7.606-1.93 10.189a10.738 10.738 0 0 1 3.084 11.82c-1.569 4.056-5.85 7.315-9.035 7.384Z"/>
  <path fill="#ccc" d="M157 623.673H1a1 1 0 0 1 0-2h156a1 1 0 0 1 0 2Z"/>
</svg>